<?xml version="1.0" encoding="utf-8"?>
<!-- Generator: Adobe Illustrator 20.0.0, SVG Export Plug-In . SVG Version: 6.00 Build 0)  -->
<svg version="1.1" id="Layer_1" xmlns="http://www.w3.org/2000/svg" xmlns:xlink="http://www.w3.org/1999/xlink" x="0px" y="0px"
	 width="242.2px" height="68px" viewBox="0 0 242.2 68" style="enable-background:new 0 0 242.2 68;" xml:space="preserve">
<style type="text/css">
	.st0{fill:#FFFFFF;}
	.st1{fill:#FFFFFF;}
	.st2{fill:#FFFFFF;}
	.st3{fill:#FFFFFF;}
	.st4{opacity:0.2;}
</style>
<g>
	<g>
		<path class="st0" d="M97,16.9c-0.2-1.5-1.4-2.5-4.6-2.5c-2.4,0-3.7,0.7-3.7,2.1c0,0.7,0.5,1.1,1.6,1.3c1.8,0.3,7.3,1.1,9.4,1.5
			c4,0.7,6.4,2.3,6.4,6.1c0,7.3-9.4,7.3-12.3,7.3c-7.3,0-12.5-1.3-12.9-7.3h8.4c0.2,1.6,1.1,2.6,4.8,2.6c1.8,0,3.7-0.4,3.7-2.2
			c0-1.1-0.9-1.5-3.4-1.9l-7.1-1.1c-4.4-0.7-6.1-2.9-6.1-6.1c0-2.8,1.7-6.8,11.1-6.8c7.8,0,12.4,1.9,12.9,6.9H97z"/>
		<path class="st0" d="M108.5,15.8h6.4v8.4c0,2.8,1.2,3.7,3.3,3.7c2.2,0,4-1.2,4-3.9v-8.2h6.4V32h-6.2v-2.1h-0.1
			c-1.3,1.6-3.6,2.8-6.8,2.8c-3.9,0-6.9-1.7-6.9-6.6V15.8z"/>
		<path class="st0" d="M131.8,15.8h6.2v2.3h0.1c1.3-1.6,3.6-2.8,6.8-2.8c4,0,6.9,1.9,6.9,6V32h-6.4v-8.8c0-2.1-1.2-3.1-3.3-3.1
			c-2.2,0-4,1.2-4,3.9v8h-6.4V15.8z"/>
		<path class="st0" d="M173.6,29.6c-1.6,2-4.6,3-7.6,3c-6.4,0-8.5-3.5-8.5-6.4c0-2.7,1.6-5,5.6-6.4c-1.9-1.7-2.3-3.1-2.3-4.3
			c0-2.9,2-4.8,5.5-4.8c3.4,0,5.4,2.1,5.4,4.6c0,1.7-1,3.7-4.1,5l5.7,5.2c0.6-1,0.9-1.9,1-3.3h2.8c-0.1,1.6-0.5,3.4-1.8,5.2l5,4.6
			h-4.2L173.6,29.6z M164.8,21.5c-3.3,1.4-4.1,2.9-4.1,4.6c0,1.7,1.2,4,5.4,4c2.1,0,4.2-0.5,5.5-2.2L164.8,21.5z M165.8,18.7
			c2.2-0.9,3.1-2.1,3.1-3.2c0-1.2-1.1-2.3-2.6-2.3c-1.9,0-2.8,1.1-2.8,2.2C163.6,16.4,164.3,17.3,165.8,18.7"/>
		<path class="st0" d="M199.6,16.9c-0.2-1.5-1.4-2.5-4.6-2.5c-2.4,0-3.7,0.7-3.7,2.1c0,0.7,0.5,1.1,1.6,1.3c1.8,0.3,7.3,1.1,9.4,1.5
			c4,0.7,6.4,2.3,6.4,6.1c0,7.3-9.4,7.3-12.3,7.3c-7.3,0-12.5-1.3-12.9-7.3h8.4c0.2,1.6,1.1,2.6,4.8,2.6c1.8,0,3.7-0.4,3.7-2.2
			c0-1.1-0.9-1.5-3.4-1.9l-7.1-1.1c-4.4-0.7-6.1-2.9-6.1-6.1c0-2.8,1.7-6.8,11.1-6.8c7.8,0,12.4,1.9,12.9,6.9H199.6z"/>
		<polygon class="st0" points="211.2,10.1 217.5,10.1 217.5,21.5 223.9,15.8 232.5,15.8 225,21.8 233.2,32 224.5,32 219.9,25.9 
			217.5,27.8 217.5,32 211.2,32 		"/>
		<path class="st0" d="M234.6,10.1h6.4v3.8h-6.4V10.1z M234.6,15.8h6.4V32h-6.4V15.8z"/>
	</g>
	<g>
		<path class="st0" d="M113,45.1c-0.2-1.5-1.4-2.5-4.6-2.5c-2.4,0-3.7,0.7-3.7,2.1c0,0.7,0.5,1.1,1.6,1.3c1.8,0.3,7.3,1.1,9.4,1.5
			c4,0.7,6.4,2.3,6.4,6.1c0,7.2-9.4,7.3-12.3,7.3c-7.2,0-12.5-1.3-12.9-7.2h8.4c0.2,1.6,1.1,2.6,4.8,2.6c1.8,0,3.7-0.4,3.7-2.2
			c0-1.1-0.9-1.5-3.4-1.9l-7.1-1.1c-4.4-0.7-6.1-2.9-6.1-6c0-2.8,1.7-6.8,11.1-6.8c7.8,0,12.4,1.9,12.9,6.9H113z"/>
		<path class="st0" d="M123.9,44h6.2v2.2h0.1c1.3-1.6,3.6-2.6,6.2-2.6c5.7,0,9.5,3.2,9.5,8.8c0,4.7-3.5,8.5-9.4,8.5
			c-2.8,0-5-0.9-6-2.1h-0.1v7.3h-6.3V44z M134.8,56.3c2.9,0,4.5-1.4,4.5-4.1c0-2.7-1.6-4.1-4.5-4.1c-3,0-4.5,1.6-4.5,4.1
			S131.8,56.3,134.8,56.3z"/>
		<path class="st0" d="M159.1,43.3c7.3,0,11.4,3,11.4,8.8s-4,8.8-11.4,8.8c-7.3,0-11.4-3-11.4-8.8S151.7,43.3,159.1,43.3z
			 M154.4,52.1c0,3.1,1.8,4.6,4.7,4.6c2.9,0,4.7-1.5,4.7-4.6c0-3.1-1.8-4.6-4.7-4.6C156.2,47.5,154.4,49.1,154.4,52.1z"/>
		<path class="st0" d="M172.3,44h6.3v3.2h0.1c1.3-2.2,3.7-3.6,6.6-3.6c0.7,0,1.5,0.1,2.2,0.2v5.9c-0.8-0.3-2.3-0.5-3.5-0.5
			c-3.6,0-5.2,1.9-5.2,4.8v6.3h-6.3V44z"/>
		<path class="st0" d="M188.5,44h3.3v-5.2h6.3V44h4.2v4.2h-4.2v6.5c0,1.5,0.4,1.7,2.1,1.7c0.8,0,1.4,0,2.2-0.1v4
			c-1.3,0.2-3,0.3-4.8,0.3c-4.1,0-5.8-1-5.8-4.5v-7.9h-3.3V44z"/>
		<path class="st0" d="M211.3,55.2c0.1,0.6,0.3,1.1,0.9,1.4c0.6,0.3,1.4,0.5,2.8,0.5c1.4,0,2.9-0.3,2.9-1.4c0-0.9-0.6-1.1-2.2-1.3
			l-5.7-0.7c-3.7-0.4-5.6-1.8-5.6-4.5c0-4.4,3.8-5.8,9.9-5.8c4.3,0,9.8,0.8,10.1,5.4h-7.1c-0.1-0.7-0.5-1.1-1.1-1.4
			c-0.6-0.3-1.5-0.4-2.3-0.4c-1.8,0-2.9,0.4-2.9,1.5c0,0.5,0.4,1,2,1.1l5.5,0.6c4.4,0.5,6.5,1.8,6.5,5c0,3.8-3.7,5.6-10.4,5.6
			c-4.5,0-10.6-0.8-10.7-5.7H211.3z"/>
	</g>
</g>
<g>
	<path class="st1" d="M60.1,25.2c4.9-1.7,8.4-6.3,8.4-11.8C68.5,6.5,62.9,1,56,1S43.5,6.5,43.5,13.4c0,2,0.5,3.8,1.3,5.5l4.5-4.5
		L60.1,25.2z"/>
	<polygon class="st0" points="25,18.4 0.7,42.7 12.9,54.8 25,42.7 49.3,66.9 61.4,54.8 	"/>
	<polygon class="st2" points="39.1,28.5 63.4,52.8 73.5,42.7 49.2,18.5 	"/>
</g>
<polygon class="st3" points="0.7,42.7 12.9,54.8 25,18.5 "/>
<polygon class="st3" points="25,18.5 25,42.7 49.2,66.9 "/>
<polygon class="st4" points="39.1,28.5 63.4,52.8 49.2,18.5 "/>
</svg>
